<svg xmlns="http://www.w3.org/2000/svg" viewBox="0 0 63 62"><defs><style>.cls-1{fill:#36a9e1;opacity:0.67;}</style></defs><g id="Capa_2" data-name="Capa 2"><g id="Capa_1-2" data-name="Capa 1"><path class="cls-1" d="M54.61,0H8.39A8.38,8.38,0,0,0,0,8.39V53.61A8.38,8.38,0,0,0,8.39,62H31l0-22H25.36A1.36,1.36,0,0,1,24,38.64l0-8.27A1.37,1.37,0,0,1,25.34,29H31V22.2C31,14.3,35.84,10,42.91,10h6.27A6.29,6.29,0,0,1,51,11.54v6A2.59,2.59,0,0,1,49.18,19H45.57C41.67,19,40,23.52,40,23.52V29h9.48a2.3,2.3,0,0,1,1.35,2L50,38.21c-.08.68-.66,1.2-1.35.79H41l0,23H54.61A8.38,8.38,0,0,0,63,53.61V8.39A8.38,8.38,0,0,0,54.61,0Z"/></g></g></svg>