<svg xmlns="http://www.w3.org/2000/svg" viewBox="0 0 56 56"><defs><style>.cls-1{opacity:0.67;}.cls-2{fill:#36a9e1;}</style></defs><g id="Capa_2" data-name="Capa 2"><g id="Capa_1-2" data-name="Capa 1"><g class="cls-1"><path class="cls-2" d="M39.44,0H16.56A16.57,16.57,0,0,0,0,16.56V39.44A16.57,16.57,0,0,0,16.56,56H39.44A16.57,16.57,0,0,0,56,39.44V16.56A16.57,16.57,0,0,0,39.44,0ZM50,39.13A10.87,10.87,0,0,1,39.13,50H17A11,11,0,0,1,6,39V17A11,11,0,0,1,17,6H39A11,11,0,0,1,50,17V39.13Z"/><path class="cls-2" d="M27.56,13.83A14.38,14.38,0,1,0,41.94,28.21,14.4,14.4,0,0,0,27.56,13.83Zm0,23.17a8.79,8.79,0,1,1,8.79-8.79A8.78,8.78,0,0,1,27.56,37Z"/><circle class="cls-2" cx="41.97" cy="13.94" r="3.45"/></g></g></g></svg>