<svg xmlns="http://www.w3.org/2000/svg" viewBox="0 0 59.92 60.41"><defs><style>.cls-1{opacity:0.67;}.cls-2{fill:#36a9e1;}</style></defs><g id="Capa_2" data-name="Capa 2"><g id="Capa_1-2" data-name="Capa 1"><g class="cls-1"><path class="cls-2" d="M28.5,0A30,30,0,0,0,3.26,43.57L.08,59a1.17,1.17,0,0,0,1.41,1.37l15.13-3.59A30,30,0,1,0,28.5,0Zm18,46.52a23.47,23.47,0,0,1-27,4.42l-2.11-1-9.27,2.2,1.95-9.48-1-2a23.48,23.48,0,0,1,4.32-27.24A23.46,23.46,0,0,1,46.55,46.55Z"/><path class="cls-2" d="M44.5,36.46l-5.8-1.67a2.16,2.16,0,0,0-2.14.56L35.14,36.8a2.12,2.12,0,0,1-2.3.49c-2.75-1.12-8.52-6.25-10-8.82A2.12,2.12,0,0,1,23,26.13l1.24-1.6a2.16,2.16,0,0,0,.27-2.2l-2.44-5.52A2.17,2.17,0,0,0,18.7,16c-1.62,1.37-3.54,3.45-3.78,5.76-.41,4.07,1.33,9.19,7.93,15.35,7.62,7.11,13.72,8,17.69,7.08,2.25-.54,4.05-2.73,5.19-4.52A2.17,2.17,0,0,0,44.5,36.46Z"/></g></g></g></svg>